<?xml version="1.0" encoding="iso-8859-1"?>
<!-- Uploaded to: SVG Repo, www.svgrepo.com, Generator: SVG Repo Mixer Tools -->
<svg fill="#000000" height="800px" width="800px" version="1.1" id="Layer_1" xmlns="http://www.w3.org/2000/svg" xmlns:xlink="http://www.w3.org/1999/xlink" 
	 viewBox="0 0 511.999 511.999" xml:space="preserve">
<g>
	<g>
		<path d="M194.956,313.754c-1.741-2.184-43.248-53.487-96.366-53.487c-53.119,0-94.625,51.303-96.366,53.487
			c-2.965,3.72-2.965,8.995,0,12.715c1.741,2.185,43.247,53.486,96.366,53.486c53.118,0,94.625-51.302,96.366-53.486
			C197.921,322.75,197.921,317.475,194.956,313.754z M98.59,359.558c-33.271,0-62.762-26.88-74.738-39.459
			c11.947-12.589,41.343-39.433,74.738-39.433c33.268,0,62.756,26.876,74.738,39.459C161.379,332.713,131.983,359.558,98.59,359.558
			z"/>
	</g>
</g>
<g>
	<g>
		<path d="M362.134,283.17c-0.616-2.724-15.651-66.979-63.472-90.103c-40.433-19.55-89.353-2.473-105.029,4.002
			c-12.5-5.366-31.001-16.632-31.581-28.797c-0.452-9.51,4.781-20.582,10.323-32.303c7.126-15.072,14.495-30.66,11.285-46.706
			c-1.106-5.524-6.483-9.108-12.001-8.001c-5.524,1.105-9.106,6.479-8.001,12.001c1.886,9.429-3.754,21.358-9.725,33.988
			c-0.154,0.326-0.309,0.655-0.463,0.981c-4.38-9.451-2.501-21.611-2.448-21.936c0.943-5.537-2.769-10.798-8.307-11.762
			c-5.549-0.959-10.831,2.751-11.796,8.301c-0.228,1.316-5.037,30.489,13.59,47.015c-1.966,6.341-3.146,12.798-2.832,19.392
			c1.173,24.637,28.43,39.772,42.577,45.993c4.328,15.473,21.212,65.714,62.306,85.584c13.85,6.697,28.692,9.096,42.858,9.096
			c34.745,0,65.393-14.439,67.182-15.298C360.889,292.559,363.186,287.81,362.134,283.17z M255.441,282.455
			c-29.953-14.483-44.803-51.521-50.11-68.058c16.237-6.133,54.39-17.503,84.451-2.965c29.941,14.477,44.789,51.489,50.102,68.041
			C323.61,285.588,285.381,296.932,255.441,282.455z"/>
	</g>
</g>
<g>
	<g>
		<path d="M508.128,342.41c-2.19-1.733-54.232-42.299-105.975-30.276c-51.739,12.028-80.552,71.395-81.753,73.918
			c-2.046,4.295-0.851,9.433,2.879,12.385c1.908,1.509,41.661,32.502,86.083,32.502c6.564,0,13.231-0.677,19.891-2.225
			c51.739-12.029,80.552-71.396,81.753-73.919C513.053,350.5,511.858,345.361,508.128,342.41z M424.635,408.844
			c-32.403,7.53-67.22-11.972-81.731-21.51c8.787-14.967,31.341-47.77,63.868-55.332c32.396-7.531,67.21,11.966,81.731,21.51
			C479.716,368.48,457.162,401.283,424.635,408.844z"/>
	</g>
</g>
<g>
	<g>
		<path d="M454.101,349.885c-5.12-2.435-10.238-4.299-15.212-5.542c-5.46-1.371-11.002,1.956-12.369,7.42
			c-1.368,5.465,1.955,11.003,7.42,12.369c3.667,0.916,7.503,2.321,11.404,4.176c1.414,0.672,2.904,0.99,4.371,0.99
			c3.814,0,7.472-2.149,9.218-5.823C461.351,358.387,459.188,352.303,454.101,349.885z"/>
	</g>
</g>
<g>
	<g>
		<path d="M411.169,352.505c-2.657-4.968-8.836-6.841-13.804-4.187c-6.397,3.42-12.51,8.334-18.169,14.605
			c-3.773,4.183-3.442,10.632,0.74,14.405c1.951,1.76,4.395,2.626,6.829,2.626c2.785,0,5.562-1.135,7.576-3.367
			c4.076-4.517,8.328-7.976,12.64-10.281C411.95,363.652,413.825,357.472,411.169,352.505z"/>
	</g>
</g>
</svg>